<?xml version="1.0" encoding="UTF-8" standalone="no"?>
<!DOCTYPE svg PUBLIC "-//W3C//DTD SVG 1.1//EN" "http://www.w3.org/Graphics/SVG/1.1/DTD/svg11.dtd">
<svg width="100%" height="100%" viewBox="0 0 40 40" version="1.1" xmlns="http://www.w3.org/2000/svg" xmlns:xlink="http://www.w3.org/1999/xlink" xml:space="preserve" xmlns:serif="http://www.serif.com/" style="fill-rule:evenodd;clip-rule:evenodd;stroke-linejoin:round;stroke-miterlimit:1.41421;">
    <path d="M6.667,36.667L26.667,36.667L26.667,33.333L6.667,33.333L6.667,13.333L3.333,13.333L3.333,33.333C3.333,35.172 4.828,36.667 6.667,36.667Z" style="fill:rgb(200,36,47);fill-rule:nonzero;"/>
    <path d="M33.333,3.333L13.333,3.333C11.495,3.333 10,4.828 10,6.667L10,26.667C10,28.505 11.495,30 13.333,30L33.333,30C35.172,30 36.667,28.505 36.667,26.667L36.667,6.667C36.667,4.828 35.172,3.333 33.333,3.333ZM30,18.333L25,18.333L25,23.333L21.667,23.333L21.667,18.333L16.667,18.333L16.667,15L21.667,15L21.667,10L25,10L25,15L30,15L30,18.333Z" style="fill:rgb(200,36,47);fill-rule:nonzero;"/>
</svg>
