<?xml version="1.0" encoding="UTF-8" standalone="no"?>
<!DOCTYPE svg PUBLIC "-//W3C//DTD SVG 1.1//EN" "http://www.w3.org/Graphics/SVG/1.1/DTD/svg11.dtd">
<svg width="100%" height="100%" viewBox="0 0 40 40" version="1.1" xmlns="http://www.w3.org/2000/svg" xmlns:xlink="http://www.w3.org/1999/xlink" xml:space="preserve" xmlns:serif="http://www.serif.com/" style="fill-rule:evenodd;clip-rule:evenodd;stroke-linejoin:round;stroke-miterlimit:1.41421;">
    <path d="M36.578,15.298C36.474,14.99 36.281,14.719 36.024,14.518C35.767,14.318 35.456,14.198 35.132,14.172L25.63,13.417L21.518,4.315C21.387,4.022 21.174,3.773 20.905,3.598C20.636,3.423 20.322,3.33 20.001,3.33C19.679,3.33 19.365,3.423 19.096,3.597C18.826,3.772 18.613,4.02 18.482,4.313L14.37,13.417L4.868,14.172C4.549,14.197 4.244,14.314 3.989,14.508C3.735,14.702 3.541,14.966 3.432,15.267C3.324,15.568 3.304,15.894 3.376,16.206C3.447,16.518 3.607,16.803 3.837,17.027L10.858,23.872L8.375,34.625C8.3,34.951 8.324,35.291 8.444,35.603C8.565,35.914 8.776,36.183 9.051,36.372C9.326,36.562 9.652,36.665 9.986,36.668C10.32,36.67 10.647,36.572 10.925,36.387L20,30.337L29.075,36.387C29.359,36.575 29.694,36.672 30.034,36.665C30.375,36.657 30.705,36.546 30.981,36.345C31.256,36.144 31.463,35.864 31.575,35.542C31.686,35.22 31.696,34.871 31.603,34.543L28.555,23.877L36.115,17.073C36.61,16.627 36.792,15.93 36.578,15.298Z" style="fill:rgb(200,36,47);fill-rule:nonzero;"/>
</svg>
