<svg width="20" height="21" viewBox="0 0 20 21" fill="none" xmlns="http://www.w3.org/2000/svg">
<path d="M5.83333 14.6667C6.98393 14.6667 7.91667 13.7339 7.91667 12.5833C7.91667 11.4327 6.98393 10.5 5.83333 10.5C4.68274 10.5 3.75 11.4327 3.75 12.5833C3.75 13.7339 4.68274 14.6667 5.83333 14.6667Z" stroke="black" stroke-width="1.66667" stroke-linecap="round" stroke-linejoin="round"/>
<path d="M14.1667 14.6667C15.3173 14.6667 16.25 13.7339 16.25 12.5833C16.25 11.4327 15.3173 10.5 14.1667 10.5C13.0161 10.5 12.0834 11.4327 12.0834 12.5833C12.0834 13.7339 13.0161 14.6667 14.1667 14.6667Z" stroke="black" stroke-width="1.66667" stroke-linecap="round" stroke-linejoin="round"/>
<path d="M10 6.33333C11.1506 6.33333 12.0834 5.40059 12.0834 4.25C12.0834 3.0994 11.1506 2.16666 10 2.16666C8.84943 2.16666 7.91669 3.0994 7.91669 4.25C7.91669 5.40059 8.84943 6.33333 10 6.33333Z" stroke="black" stroke-width="1.66667" stroke-linecap="round" stroke-linejoin="round"/>
<path d="M10 18.8333C10 16.5321 8.1346 14.6667 5.83335 14.6667C3.5321 14.6667 1.66669 16.5321 1.66669 18.8333" stroke="black" stroke-width="1.66667" stroke-linecap="round" stroke-linejoin="round"/>
<path d="M18.3333 18.8333C18.3333 16.5321 16.4679 14.6667 14.1667 14.6667C11.8654 14.6667 10 16.5321 10 18.8333" stroke="black" stroke-width="1.66667" stroke-linecap="round" stroke-linejoin="round"/>
<path d="M14.1667 10.5C14.1667 8.19874 12.3013 6.33333 10 6.33333C7.69879 6.33333 5.83337 8.19874 5.83337 10.5" stroke="black" stroke-width="1.66667" stroke-linecap="round" stroke-linejoin="round"/>
</svg>
