<?xml version="1.0" encoding="UTF-8" standalone="no"?>
<!DOCTYPE svg PUBLIC "-//W3C//DTD SVG 1.1//EN" "http://www.w3.org/Graphics/SVG/1.1/DTD/svg11.dtd">
<svg width="100%" height="100%" viewBox="0 0 20 20" version="1.1" xmlns="http://www.w3.org/2000/svg" xmlns:xlink="http://www.w3.org/1999/xlink" xml:space="preserve" xmlns:serif="http://www.serif.com/" style="fill-rule:evenodd;clip-rule:evenodd;stroke-linejoin:round;stroke-miterlimit:1.41421;">
    <g transform="matrix(1,0,0,1,-1.5151,0.11836)">
        <path d="M11.437,12.188C12.017,12.188 12.574,11.957 12.984,11.547C13.394,11.137 13.625,10.58 13.625,10C13.625,9.936 13.622,9.872 13.616,9.81L11.247,12.179C11.31,12.185 11.373,12.188 11.437,12.188ZM18.678,3.234L17.843,2.4C17.814,2.371 17.774,2.354 17.733,2.354C17.691,2.354 17.652,2.371 17.622,2.4L15.487,4.536C14.309,3.934 12.985,3.633 11.515,3.633C7.761,3.633 4.96,5.588 3.113,9.498C3.039,9.655 3,9.827 3,10.001C3,10.175 3.039,10.347 3.113,10.504C3.851,12.059 4.74,13.305 5.78,14.243L3.714,16.309C3.684,16.338 3.668,16.378 3.668,16.419C3.668,16.461 3.684,16.5 3.714,16.53L4.547,17.363C4.577,17.393 4.616,17.409 4.658,17.409C4.699,17.409 4.739,17.393 4.768,17.363L18.678,3.455C18.692,3.44 18.704,3.423 18.712,3.404C18.719,3.385 18.724,3.365 18.724,3.344C18.724,3.324 18.719,3.303 18.712,3.284C18.704,3.265 18.692,3.248 18.678,3.234ZM8,10C7.999,9.406 8.153,8.823 8.446,8.306C8.738,7.789 9.16,7.357 9.669,7.052C10.178,6.746 10.758,6.578 11.351,6.563C11.945,6.548 12.532,6.688 13.056,6.967L12.106,7.917C11.723,7.794 11.314,7.779 10.923,7.874C10.532,7.969 10.175,8.169 9.891,8.454C9.606,8.738 9.406,9.095 9.311,9.486C9.216,9.877 9.231,10.286 9.354,10.669L8.404,11.619C8.138,11.121 7.999,10.565 8,10Z" style="fill:rgb(156,156,156);fill-rule:nonzero;"/>
        <path d="M19.917,9.496C19.23,8.048 18.412,6.868 17.463,5.954L14.647,8.77C14.885,9.39 14.937,10.066 14.799,10.715C14.66,11.365 14.337,11.96 13.867,12.43C13.397,12.9 12.802,13.223 12.152,13.362C11.503,13.5 10.827,13.448 10.207,13.21L7.819,15.598C8.926,16.111 10.159,16.367 11.515,16.367C15.269,16.367 18.07,14.412 19.917,10.502C19.992,10.345 20.03,10.173 20.03,9.999C20.03,9.825 19.992,9.653 19.917,9.496Z" style="fill:rgb(156,156,156);fill-rule:nonzero;"/>
    </g>
</svg>
