<svg width="20" height="21" viewBox="0 0 20 21" fill="none" xmlns="http://www.w3.org/2000/svg">
<path d="M9.37203 2.525C10.9872 2.39766 12.6029 2.76372 14.0055 3.57475C15.408 4.38577 16.5313 5.60353 17.2266 7.0669C17.9219 8.53026 18.1565 10.1703 17.8994 11.7699C17.6423 13.3695 16.9055 14.8534 15.7866 16.0251C14.6677 17.1969 13.2194 18.0013 11.6334 18.3319C10.0473 18.6625 8.39825 18.5038 6.90437 17.8767C5.4105 17.2496 4.14222 16.1837 3.26737 14.8201C2.39252 13.4564 1.95232 11.8593 2.00503 10.24C2.00798 10.1415 2.03031 10.0446 2.07073 9.9547C2.11115 9.86483 2.16888 9.78381 2.24061 9.71626C2.31234 9.6487 2.39668 9.59594 2.4888 9.56098C2.58093 9.52602 2.67904 9.50954 2.77753 9.5125C2.87602 9.51545 2.97297 9.53778 3.06283 9.5782C3.15269 9.61862 3.23371 9.67634 3.30127 9.74808C3.36882 9.81981 3.42159 9.90415 3.45655 9.99627C3.49151 10.0884 3.50798 10.1865 3.50503 10.285C3.45435 11.8179 3.94733 13.3193 4.89679 14.5237C5.84626 15.7282 7.19104 16.5581 8.69335 16.8668C10.1957 17.1754 11.7587 16.9429 13.1062 16.2104C14.4536 15.4778 15.4986 14.2924 16.0564 12.8637C16.6142 11.4351 16.6488 9.85517 16.1541 8.40343C15.6595 6.95169 14.6675 5.72161 13.3534 4.93071C12.0394 4.13981 10.488 3.83903 8.97362 4.08156C7.45922 4.32408 6.07936 5.09429 5.07803 6.256L4.87403 6.504H7.25303L7.35503 6.512C7.53454 6.5367 7.69904 6.62555 7.81812 6.76213C7.9372 6.89872 8.0028 7.07379 8.0028 7.255C8.0028 7.4362 7.9372 7.61128 7.81812 7.74786C7.69904 7.88444 7.53454 7.9733 7.35503 7.998L7.25303 8.005H3.25303L3.15103 7.998C2.98888 7.97573 2.83846 7.90103 2.72273 7.7853C2.60699 7.66956 2.53229 7.51915 2.51003 7.357L2.50303 7.255V3.255L2.51003 3.153C2.53229 2.99085 2.60699 2.84043 2.72273 2.72469C2.83846 2.60896 2.98888 2.53426 3.15103 2.512L3.25303 2.505L3.35503 2.512C3.51718 2.53426 3.6676 2.60896 3.78333 2.72469C3.89907 2.84043 3.97376 2.99085 3.99603 3.153L4.00303 3.255L4.00203 5.208C5.37457 3.64894 7.30111 2.68675 9.37203 2.526V2.525ZM9.75003 6.504L9.85203 6.511C10.0142 6.53326 10.1646 6.60796 10.2803 6.72369C10.3961 6.83943 10.4708 6.98985 10.493 7.152L10.5 7.254V10.499L12.25 10.5L12.352 10.507C12.5323 10.5309 12.6978 10.6195 12.8176 10.7562C12.9374 10.893 13.0035 11.0687 13.0035 11.2505C13.0035 11.4323 12.9374 11.608 12.8176 11.7448C12.6978 11.8815 12.5323 11.9701 12.352 11.994L12.25 12H9.75003L9.64803 11.994C9.48573 11.9717 9.3352 11.8968 9.21945 11.7809C9.1037 11.665 9.02909 11.5143 9.00703 11.352L9.00003 11.25V7.254L9.00703 7.152C9.02929 6.98985 9.10399 6.83943 9.21973 6.72369C9.33546 6.60796 9.48588 6.53326 9.64803 6.511L9.75003 6.504Z" fill="black"/>
</svg>
