<svg width="20" height="21" viewBox="0 0 20 21" fill="none" xmlns="http://www.w3.org/2000/svg">
<path d="M16.875 1.75C16.3339 1.74977 15.8074 1.92517 15.3745 2.24983C14.9417 2.57449 14.6259 3.03088 14.4746 3.5504C14.3234 4.06992 14.3448 4.62449 14.5357 5.13077C14.7267 5.63705 15.0768 6.06768 15.5334 6.35793L13.9021 12.0676C13.8515 12.0644 13.8007 12.0627 13.75 12.0625C13.2122 12.0619 12.6888 12.2357 12.2581 12.5577L9.24426 10.0462C9.38695 9.62287 9.41359 9.16904 9.32141 8.73191C9.22924 8.29479 9.02162 7.89035 8.72015 7.56067C8.41868 7.23099 8.03438 6.98811 7.60722 6.85731C7.18007 6.7265 6.72566 6.71254 6.29128 6.81689C5.85691 6.92123 5.45842 7.14006 5.13729 7.45062C4.81615 7.76117 4.5841 8.15211 4.46527 8.58275C4.34644 9.01339 4.34518 9.46801 4.46161 9.8993C4.57804 10.3306 4.80791 10.7228 5.12731 11.0352L3.35809 14.5737C3.28061 14.5664 3.20284 14.5626 3.12501 14.5625C2.52609 14.5617 1.94675 14.7757 1.49214 15.1656C1.03753 15.5556 0.737786 16.0955 0.647319 16.6876C0.556852 17.2796 0.681656 17.8845 0.999078 18.3924C1.3165 18.9003 1.8055 19.2775 2.37732 19.4556C2.94913 19.6338 3.56586 19.601 4.11556 19.3632C4.66526 19.1254 5.11149 18.6984 5.37326 18.1598C5.63502 17.6211 5.69497 17.0064 5.54222 16.4273C5.38947 15.8482 5.03415 15.343 4.54075 15.0035L6.21262 11.6602C6.61875 11.7722 7.04663 11.7796 7.45636 11.6815C7.86608 11.5834 8.24428 11.3832 8.55567 11.0994L11.4736 13.5311C11.2755 13.9678 11.2071 14.4522 11.2766 14.9267C11.3462 15.4011 11.5507 15.8456 11.8658 16.207C12.1809 16.5685 12.5933 16.8317 13.0538 16.9653C13.5144 17.0988 14.0036 17.0971 14.4632 16.9604C14.9228 16.8236 15.3334 16.5576 15.646 16.1939C15.9586 15.8303 16.16 15.3845 16.2262 14.9095C16.2925 14.4346 16.2207 13.9507 16.0196 13.5154C15.8184 13.0801 15.4963 12.7119 15.0916 12.4546L16.7229 6.74492C16.7732 6.74797 16.8239 6.75 16.875 6.75C17.538 6.75 18.1739 6.48661 18.6428 6.01777C19.1116 5.54893 19.375 4.91304 19.375 4.25C19.375 3.58696 19.1116 2.95107 18.6428 2.48223C18.1739 2.01339 17.538 1.75 16.875 1.75ZM3.12501 18.3125C2.87778 18.3125 2.63611 18.2392 2.43054 18.1018C2.22498 17.9645 2.06477 17.7693 1.97016 17.5409C1.87555 17.3124 1.85079 17.0611 1.89903 16.8186C1.94726 16.5762 2.06631 16.3534 2.24112 16.1786C2.41594 16.0038 2.63867 15.8847 2.88114 15.8365C3.12362 15.7883 3.37495 15.813 3.60336 15.9076C3.83177 16.0023 4.02699 16.1625 4.16434 16.368C4.3017 16.5736 4.37501 16.8153 4.37501 17.0625C4.37464 17.3939 4.24282 17.7116 4.00848 17.946C3.77414 18.1803 3.45641 18.3121 3.12501 18.3125ZM6.87501 10.5C6.62778 10.5 6.38611 10.4267 6.18054 10.2893C5.97498 10.152 5.81477 9.95676 5.72016 9.72835C5.62555 9.49995 5.60079 9.24861 5.64903 9.00614C5.69726 8.76366 5.81631 8.54093 5.99112 8.36612C6.16594 8.1913 6.38867 8.07225 6.63114 8.02402C6.87362 7.97579 7.12495 8.00054 7.35336 8.09515C7.58177 8.18976 7.77699 8.34998 7.91434 8.55554C8.0517 8.7611 8.12501 9.00277 8.12501 9.25C8.12463 9.58141 7.99282 9.89913 7.75848 10.1335C7.52414 10.3678 7.20641 10.4996 6.87501 10.5ZM13.75 15.8125C13.5028 15.8125 13.2611 15.7392 13.0555 15.6018C12.85 15.4645 12.6898 15.2693 12.5952 15.0409C12.5005 14.8124 12.4758 14.5611 12.524 14.3186C12.5723 14.0762 12.6913 13.8534 12.8661 13.6786C13.0409 13.5038 13.2637 13.3847 13.5061 13.3365C13.7486 13.2883 14 13.313 14.2284 13.4076C14.4568 13.5023 14.652 13.6625 14.7893 13.868C14.9267 14.0736 15 14.3153 15 14.5625C14.9996 14.8939 14.8678 15.2116 14.6335 15.446C14.3991 15.6803 14.0814 15.8121 13.75 15.8125ZM16.875 5.5C16.6278 5.5 16.3861 5.42669 16.1805 5.28934C15.975 5.15199 15.8148 4.95676 15.7202 4.72835C15.6255 4.49995 15.6008 4.24861 15.649 4.00614C15.6973 3.76366 15.8163 3.54093 15.9911 3.36612C16.1659 3.1913 16.3887 3.07225 16.6311 3.02402C16.8736 2.97579 17.125 3.00054 17.3534 3.09515C17.5818 3.18976 17.777 3.34998 17.9143 3.55554C18.0517 3.7611 18.125 4.00277 18.125 4.25C18.1246 4.58141 17.9928 4.89913 17.7585 5.13347C17.5241 5.36781 17.2064 5.49963 16.875 5.5Z" fill="black"/>
</svg>
