<?xml version="1.0" encoding="UTF-8" standalone="no"?>
<!DOCTYPE svg PUBLIC "-//W3C//DTD SVG 1.1//EN" "http://www.w3.org/Graphics/SVG/1.1/DTD/svg11.dtd">
<svg width="100%" height="100%" viewBox="0 0 40 40" version="1.1" xmlns="http://www.w3.org/2000/svg" xmlns:xlink="http://www.w3.org/1999/xlink" xml:space="preserve" xmlns:serif="http://www.serif.com/" style="fill-rule:evenodd;clip-rule:evenodd;stroke-linejoin:round;stroke-miterlimit:1.41421;">
    <g transform="matrix(1,0,0,1,-0.0014837,0.00125)">
        <path d="M20.033,5C16.268,5 12.839,6.243 10.81,7.259C10.627,7.351 10.456,7.441 10.297,7.528C9.982,7.699 9.713,7.859 9.5,8L11.808,11.398L12.895,11.831C17.142,13.973 22.837,13.973 27.084,11.831L28.318,11.191L30.5,8C30.048,7.705 29.578,7.439 29.093,7.202C27.073,6.198 23.726,5 20.033,5L20.033,5ZM14.664,8.847C13.847,8.694 13.04,8.491 12.247,8.24C14.148,7.396 16.98,6.5 20.033,6.5C22.147,6.5 24.146,6.93 25.799,7.475C23.862,7.747 21.794,8.21 19.824,8.779C18.274,9.227 16.463,9.179 14.664,8.847ZM27.964,13.067L27.759,13.17C23.088,15.527 16.891,15.527 12.219,13.17L12.025,13.072C5.007,20.773 -0.352,34.998 20.033,34.998C40.417,34.998 34.928,20.507 27.964,13.067ZM19.167,20C18.725,20 18.301,20.176 17.988,20.488C17.676,20.801 17.5,21.225 17.5,21.667C17.5,22.109 17.676,22.533 17.988,22.845C18.301,23.158 18.725,23.333 19.167,23.333L19.167,20ZM20.833,18.333L20.833,17.5L19.167,17.5L19.167,18.333C18.283,18.333 17.435,18.685 16.81,19.31C16.185,19.935 15.833,20.783 15.833,21.667C15.833,22.551 16.185,23.399 16.81,24.024C17.435,24.649 18.283,25 19.167,25L19.167,28.333C18.442,28.333 17.824,27.871 17.594,27.223C17.56,27.116 17.505,27.018 17.432,26.934C17.36,26.849 17.271,26.78 17.171,26.731C17.071,26.682 16.962,26.653 16.851,26.646C16.74,26.639 16.628,26.655 16.523,26.692C16.418,26.729 16.322,26.787 16.239,26.862C16.157,26.937 16.091,27.028 16.044,27.129C15.997,27.23 15.972,27.34 15.968,27.451C15.964,27.563 15.983,27.674 16.023,27.778C16.253,28.427 16.679,28.99 17.242,29.388C17.805,29.786 18.477,30 19.167,30L19.167,30.833L20.833,30.833L20.833,30C21.718,30 22.565,29.649 23.19,29.024C23.816,28.399 24.167,27.551 24.167,26.667C24.167,25.783 23.816,24.935 23.19,24.31C22.565,23.685 21.718,23.333 20.833,23.333L20.833,20C21.558,20 22.176,20.462 22.406,21.111C22.44,21.217 22.495,21.315 22.568,21.4C22.641,21.484 22.729,21.553 22.829,21.602C22.929,21.652 23.038,21.681 23.149,21.687C23.26,21.694 23.372,21.679 23.477,21.641C23.582,21.604 23.678,21.546 23.761,21.471C23.843,21.396 23.91,21.305 23.956,21.204C24.003,21.103 24.029,20.994 24.032,20.882C24.036,20.771 24.017,20.66 23.977,20.556C23.747,19.906 23.321,19.343 22.758,18.945C22.195,18.547 21.523,18.333 20.833,18.333ZM20.833,25L20.833,28.333C21.275,28.333 21.699,28.158 22.012,27.845C22.325,27.533 22.5,27.109 22.5,26.667C22.5,26.225 22.325,25.801 22.012,25.488C21.699,25.176 21.275,25 20.833,25Z" style="fill:rgb(200,36,47);"/>
    </g>
</svg>
