<svg width="20" height="21" viewBox="0 0 20 21" fill="none" xmlns="http://www.w3.org/2000/svg">
<path d="M17.2891 9.2168L17.2852 9.20117L15.0938 3.63281C14.9961 3.31836 14.7051 3.10156 14.375 3.10156H5.49219C5.16016 3.10156 4.86524 3.32227 4.77149 3.64063L2.72266 9.15234L2.7168 9.16602L2.71289 9.18164C2.6875 9.27734 2.67969 9.375 2.69336 9.4707C2.69141 9.50195 2.68946 9.5332 2.68946 9.56445V16.7109C2.68997 17.0257 2.81525 17.3275 3.03784 17.5501C3.26043 17.7726 3.56217 17.8979 3.87696 17.8984H16.127C16.7813 17.8984 17.3145 17.3652 17.3164 16.7109V9.56445C17.3164 9.53906 17.3164 9.51367 17.3145 9.49219C17.3223 9.39648 17.3145 9.30469 17.2891 9.2168ZM11.5117 8.37695L11.5059 8.68359C11.4902 9.56055 10.8848 10.1504 10 10.1504C9.56836 10.1504 9.19727 10.0117 8.92969 9.74805C8.66211 9.48438 8.51563 9.11719 8.50782 8.68359L8.50196 8.37695H4.48243L6.03516 4.60156H13.832L15.4277 8.37695H11.5117ZM4.1875 9.87695H7.25977C7.73438 10.9922 8.74414 11.6504 10.002 11.6504C10.6602 11.6504 11.2715 11.4668 11.7656 11.1191C12.1992 10.8145 12.5371 10.3887 12.7559 9.87695H15.8125V16.3984H4.1875V9.87695Z" fill="black"/>
</svg>
