<?xml version="1.0" encoding="UTF-8" standalone="no"?>
<!DOCTYPE svg PUBLIC "-//W3C//DTD SVG 1.1//EN" "http://www.w3.org/Graphics/SVG/1.1/DTD/svg11.dtd">
<svg width="100%" height="100%" viewBox="0 0 40 40" version="1.1" xmlns="http://www.w3.org/2000/svg" xmlns:xlink="http://www.w3.org/1999/xlink" xml:space="preserve" xmlns:serif="http://www.serif.com/" style="fill-rule:evenodd;clip-rule:evenodd;stroke-linejoin:round;stroke-miterlimit:1.41421;">
    <g transform="matrix(1,0,0,1,-3.5e-05,-1.5e-05)">
        <path d="M20,36.667C10.795,36.667 3.333,29.205 3.333,20C3.333,10.795 10.795,3.333 20,3.333C29.205,3.333 36.667,10.795 36.667,20C36.667,29.205 29.205,36.667 20,36.667ZM14.167,23.333L14.167,26.667L18.333,26.667L18.333,30L21.667,30L21.667,26.667L23.333,26.667C24.438,26.667 25.498,26.228 26.28,25.446C27.061,24.665 27.5,23.605 27.5,22.5C27.5,21.395 27.061,20.335 26.28,19.554C25.498,18.772 24.438,18.333 23.333,18.333L16.667,18.333C16.446,18.333 16.234,18.246 16.078,18.089C15.921,17.933 15.833,17.721 15.833,17.5C15.833,17.279 15.921,17.067 16.078,16.911C16.234,16.755 16.446,16.667 16.667,16.667L25.833,16.667L25.833,13.333L21.667,13.333L21.667,10L18.333,10L18.333,13.333L16.667,13.333C15.562,13.333 14.502,13.772 13.72,14.554C12.939,15.335 12.5,16.395 12.5,17.5C12.5,18.605 12.939,19.665 13.72,20.446C14.502,21.228 15.562,21.667 16.667,21.667L23.333,21.667C23.554,21.667 23.766,21.755 23.923,21.911C24.079,22.067 24.167,22.279 24.167,22.5C24.167,22.721 24.079,22.933 23.923,23.089C23.766,23.246 23.554,23.333 23.333,23.333L14.167,23.333Z" style="fill:rgb(200,36,47);fill-rule:nonzero;"/>
    </g>
</svg>
